<svg width="38" height="78" viewBox="0 0 38 78" fill="none" xmlns="http://www.w3.org/2000/svg">
<g clip-path="url(#clip0_49_6)">
<path d="M14.6717 59.0423C14.6717 57.2963 14.6497 55.5502 14.6752 53.8047C14.8929 38.9449 15.1189 24.0851 15.3445 9.22547C15.3693 7.60456 15.3302 5.97743 15.4596 4.36444C15.638 2.14381 16.0545 -0.455695 18.9057 0.0681111C20.0442 0.277331 21.483 2.71946 21.5674 4.21429C22.2675 16.6195 22.7029 29.0402 23.1679 41.4582C23.2738 44.2853 23.1835 47.1198 24.7072 50.247C26.6395 46.847 28.323 43.2645 30.6125 40.1263C31.6971 38.6396 34.2106 36.8741 35.6021 37.2102C38.6904 37.9565 38.2407 41.1689 37.3014 43.3082C32.86 53.4236 28.5934 63.6624 23.353 73.3623C19.9964 79.5751 14.9656 79.5237 11.6353 73.3409C7.17895 65.0679 3.7389 56.2341 0.104307 47.5394C-0.334449 46.4894 0.729877 44.8078 1.0973 43.419C2.48826 43.8857 4.40241 43.9384 5.1626 44.9044C6.80685 46.993 7.87067 49.5439 9.15085 51.917C10.492 54.4028 11.8082 56.9018 13.1352 59.3951C13.6475 59.2774 14.1596 59.1599 14.6717 59.0423Z" fill="#F3DBC6"/>
</g>
<defs>
<clipPath id="clip0_49_6">
<rect width="38" height="78" fill="white"/>
</clipPath>
</defs>
</svg>
