<svg width="58" height="120" viewBox="0 0 58 120" fill="none" xmlns="http://www.w3.org/2000/svg">
<path d="M57.2364 80.2923C50.1506 83.0766 49.6841 84.7738 50.1454 103.794C48.7778 102.539 47.7224 101.748 46.8855 100.775C39.0297 91.6357 32.5304 81.6051 27.236 70.8398C18.5606 53.1989 11.2257 35.0237 5.88638 16.1188C4.76796 12.1588 2.89576 8.15216 4.74059 3.72671C5.09527 2.876 3.57272 1.26187 2.91614 -3.08867e-06C2.33343 0.091514 1.75074 0.183021 1.16789 0.274671C0.754794 2.6191 -0.210806 5.02336 0.0414027 7.29577C0.602493 12.3488 1.33453 17.4625 2.77405 22.3273C8.09958 40.3248 14.325 58.0668 23.1933 74.6619C28.4978 84.5885 35.2358 93.7739 41.4427 103.22C43.0746 105.703 45.1278 107.916 47.7971 111.27C45.4536 110.542 44.0849 110.393 43.0333 109.744C35.9171 105.351 28.8783 100.835 21.7892 96.3986C20.0877 95.3335 18.1585 92.818 16.2672 95.1248C14.3385 97.4774 17.257 98.8381 18.7426 100.089C28.3343 108.17 39.1262 114.264 50.7223 119.132C56.1186 121.397 58.5911 119.107 57.8807 113.697C57.2719 109.061 56.5038 104.423 55.412 99.8779C53.8692 93.4557 53.9388 87.2438 57.2364 80.2923Z" fill="#F3DBC6"/>
</svg>
